<svg width="20" height="21" viewBox="0 0 20 21" fill="none" xmlns="http://www.w3.org/2000/svg">
<path fill-rule="evenodd" clip-rule="evenodd" d="M16.6667 0.5C17.5169 0.499953 18.335 0.824806 18.9536 1.40809C19.5722 1.99138 19.9446 2.78901 19.9944 3.63778L20 3.83333V17.1667C20 18.0169 19.6752 18.835 19.0919 19.4536C18.5086 20.0722 17.711 20.4446 16.8622 20.4944L16.6667 20.5H3.33333C2.4831 20.5 1.66498 20.1752 1.04638 19.5919C0.42777 19.0086 0.0554361 18.211 0.00555569 17.3622L5.17827e-09 17.1667V3.83333C-4.73575e-05 2.9831 0.324806 2.16498 0.908093 1.54638C1.49138 0.92777 2.28901 0.555436 3.13778 0.505556L3.33333 0.5H16.6667ZM6.11111 12.7222C5.6968 12.7222 5.29734 12.8766 4.99065 13.1551C4.68395 13.4337 4.492 13.8165 4.45222 14.2289L4.44444 14.3889L4.45222 14.56C4.49219 14.9723 4.68423 15.3549 4.9909 15.6332C5.29758 15.9116 5.69693 16.0658 6.11111 16.0658C6.5253 16.0658 6.92464 15.9116 7.23132 15.6332C7.538 15.3549 7.73003 14.9723 7.77 14.56L7.77778 14.4L7.77 14.2289C7.73023 13.8165 7.53827 13.4337 7.23158 13.1551C6.92488 12.8766 6.52543 12.7222 6.11111 12.7222ZM13.8889 12.7222C13.4746 12.7222 13.0751 12.8766 12.7684 13.1551C12.4617 13.4337 12.2698 13.8165 12.23 14.2289L12.2222 14.4C12.2224 14.828 12.3873 15.2395 12.6827 15.5493C12.978 15.8591 13.3813 16.0433 13.8088 16.0639C14.2363 16.0845 14.6554 15.9398 14.9791 15.6598C15.3029 15.3798 15.5065 14.986 15.5478 14.56L15.5556 14.3889C15.5556 13.9469 15.38 13.5229 15.0674 13.2104C14.7548 12.8978 14.3309 12.7222 13.8889 12.7222ZM10 8.83333C9.58569 8.83335 9.18623 8.98769 8.87953 9.26624C8.57284 9.5448 8.38089 9.9276 8.34111 10.34L8.33333 10.5111C8.33355 10.9391 8.49842 11.3507 8.79379 11.6604C9.08916 11.9702 9.49238 12.1545 9.91991 12.175C10.3474 12.1956 10.7665 12.0509 11.0902 11.7709C11.414 11.4909 11.6176 11.0971 11.6589 10.6711L11.6667 10.5C11.6667 10.058 11.4911 9.63405 11.1785 9.32149C10.866 9.00893 10.442 8.83333 10 8.83333ZM6.11111 4.94444C5.6968 4.94446 5.29734 5.0988 4.99065 5.37735C4.68395 5.65591 4.492 6.03871 4.45222 6.45111L4.44444 6.61111L4.45222 6.78222C4.49219 7.19447 4.68423 7.57707 4.9909 7.85546C5.29758 8.13384 5.69693 8.28806 6.11111 8.28806C6.5253 8.28806 6.92464 8.13384 7.23132 7.85546C7.538 7.57707 7.73003 7.19447 7.77 6.78222L7.77778 6.62222L7.77 6.45111C7.73023 6.03871 7.53827 5.65591 7.23158 5.37735C6.92488 5.0988 6.52543 4.94446 6.11111 4.94444ZM13.8889 4.94444C13.4746 4.94446 13.0751 5.0988 12.7684 5.37735C12.4617 5.65591 12.2698 6.03871 12.23 6.45111L12.2222 6.62222C12.2224 7.05024 12.3873 7.46177 12.6827 7.77154C12.978 8.08131 13.3813 8.26557 13.8088 8.28614C14.2363 8.30671 14.6554 8.16201 14.9791 7.88203C15.3029 7.60205 15.5065 7.20824 15.5478 6.78222L15.5556 6.61111C15.5556 6.16908 15.38 5.74516 15.0674 5.4326C14.7548 5.12004 14.3309 4.94444 13.8889 4.94444Z" fill="#5F8EF3"/>
</svg>
