<svg width="601" height="600" viewBox="0 0 601 600" fill="none" xmlns="http://www.w3.org/2000/svg">
<g opacity="0.1" filter="url(#filter0_i_1_924)">
<path d="M41.3618 202.534L138.324 247.703L195.343 167.961C195.343 167.961 166.505 235.239 197.14 260.909C227.775 286.579 308.066 262.415 308.066 262.415L212.9 310.192L266.806 391.44L169.844 346.27L112.825 426.012C112.825 426.012 141.663 358.735 111.028 333.065C80.3927 307.395 0.102539 331.559 0.102539 331.559L95.2683 283.781L41.3618 202.534Z" fill="url(#paint0_linear_1_924)"/>
<path d="M600.103 363.775L522.937 296.987L600.103 230.198C600.103 230.198 530.012 270.952 492.492 252.8C454.971 234.649 462.046 163.41 462.046 163.41L431.601 252.8L323.99 230.198L401.156 296.987L323.99 363.775C323.99 363.775 394.081 323.021 431.601 341.173C469.122 359.325 462.047 430.564 462.047 430.564L492.492 341.173L600.103 363.775Z" fill="url(#paint1_linear_1_924)"/>
<path d="M253.543 251.043L318.639 175.768L410.534 227.847C410.534 227.847 350.466 177.086 365.284 142.972C380.101 108.858 465.057 102.326 465.057 102.326L354.71 92.7251L362.588 0L297.492 75.2746L205.596 23.1954C205.596 23.1954 265.665 73.9572 250.847 108.071C236.029 142.185 151.074 148.717 151.074 148.717L261.42 158.318L253.543 251.043Z" fill="url(#paint2_linear_1_924)"/>
<path d="M158.265 422.766L248.099 477.312L185.947 554.314C185.947 554.314 246.527 503.981 287.239 516.397C327.951 528.814 335.747 600 335.747 600L347.204 507.537L457.864 514.138L368.03 459.592L430.182 382.591C430.182 382.591 369.602 432.924 328.89 420.507C288.179 408.091 280.383 336.904 280.383 336.904L268.925 429.367L158.265 422.766Z" fill="url(#paint3_linear_1_924)"/>
</g>
<defs>
<filter id="filter0_i_1_924" x="0.102539" y="0" width="600" height="602" filterUnits="userSpaceOnUse" color-interpolation-filters="sRGB">
<feFlood flood-opacity="0" result="BackgroundImageFix"/>
<feBlend mode="normal" in="SourceGraphic" in2="BackgroundImageFix" result="shape"/>
<feColorMatrix in="SourceAlpha" type="matrix" values="0 0 0 0 0 0 0 0 0 0 0 0 0 0 0 0 0 0 127 0" result="hardAlpha"/>
<feOffset dy="2"/>
<feGaussianBlur stdDeviation="2"/>
<feComposite in2="hardAlpha" operator="arithmetic" k2="-1" k3="1"/>
<feColorMatrix type="matrix" values="0 0 0 0 0 0 0 0 0 0 0 0 0 0 0 0 0 0 1 0"/>
<feBlend mode="normal" in2="shape" result="effect1_innerShadow_1_924"/>
</filter>
<linearGradient id="paint0_linear_1_924" x1="300.103" y1="0" x2="300.103" y2="600" gradientUnits="userSpaceOnUse">
<stop offset="0.436104" stop-color="white"/>
<stop offset="1" stop-color="#353535"/>
</linearGradient>
<linearGradient id="paint1_linear_1_924" x1="300.103" y1="0" x2="300.103" y2="600" gradientUnits="userSpaceOnUse">
<stop offset="0.436104" stop-color="white"/>
<stop offset="1" stop-color="#353535"/>
</linearGradient>
<linearGradient id="paint2_linear_1_924" x1="300.103" y1="0" x2="300.103" y2="600" gradientUnits="userSpaceOnUse">
<stop offset="0.436104" stop-color="white"/>
<stop offset="1" stop-color="#353535"/>
</linearGradient>
<linearGradient id="paint3_linear_1_924" x1="300.103" y1="0" x2="300.103" y2="600" gradientUnits="userSpaceOnUse">
<stop offset="0.436104" stop-color="white"/>
<stop offset="1" stop-color="#353535"/>
</linearGradient>
</defs>
</svg>
